<svg id="Layer_1" xmlns="http://www.w3.org/2000/svg" viewBox="0 0 150 110"><style>.st0{fill:#F7BB98;} .st1{fill:#F0F0F0;} .st2{fill:#E9F5FC;} .st3{fill:#774594;} .st4{opacity:0.21;fill:#55666E;enable-background:new ;} .st5{fill:#96599F;} .st6{fill:#673D8F;} .st7{fill:#34444A;} .st8{fill:#283539;} .st9{opacity:0.41;} .st10{fill:#D6A98C;} .st11{fill:#F2AF90;} .st12{fill:#868686;} .st13{fill:#EB9696;} .st14{fill:#3A3E42;} .st15{fill:#3C3C3B;}</style><path class="st0" d="M60.2 83.6l15.7-4.7 15.6 4.6S76.4 94.7 75.9 94.7 66 87.9 60.2 83.6z"/><path class="st1" d="M58 84.2l17.8 12.2 17.9-12.2s-1.2-.7-2.6-.8L76 93.9 60.2 83.6s-1.5-.1-2.2.6z"/><ellipse class="st2" cx="75.8" cy="94.5" rx="2.6" ry="1.7"/><path class="st3" d="M68.1 90.9l5.7 5.5h3.7l6.1-5.3s-3.5-2.2-5.7 0l-1.6 3.3-1-.2-1.7-3.7c0 .1-3.3-2.4-5.5.4z"/><path class="st3" d="M74.7 95.8s-3.8 2.5-3.8 3.8c0 3.9 2.8 10.6 2.8 10.6h4.9s3.2-6.7 2.7-10.7c-.2-1.3-3.8-3.8-3.8-3.8l-2.8.1z"/><path class="st4" d="M75.3 102.7s-1.1-6.2.5-6.2.2 11.1.2 11.1"/><path class="st5" d="M76.7 97.7h-1.4c-1 0-1.7-.8-1.7-1.7v-.2c0-1 .8-1.7 1.7-1.7h1.4c1 0 1.7.8 1.7 1.7v.2c0 .9-.8 1.7-1.7 1.7z"/><path class="st6" d="M76.6 98h-1.2c-1 0-1.8-.8-1.8-1.8s.8-1.8 1.8-1.8h1.2c1 0 1.8.8 1.8 1.8s-.8 1.8-1.8 1.8z"/><path class="st7" d="M76.1 107.5L58.8 83.8l-14.5 3.9c-3.3.8-6.8 2.8-7.6 6.1-.9 4-.7 16.5-.7 16.5h79.8s.3-12.5-.7-16.5c-.8-3.3-4.3-5.3-7.6-6.1l-15.1-3.9-16.3 23.7z"/><path class="st8" d="M51.6 110.3l1.4-2.8v2.8zm49.7 0l-1.4-2.8v2.8zm-25.4 0l.1-2.8 16.5-23.7s2.8.3 7.1 1.5c1.6.4 2.8.9 2.8.9s-.3 4.7-13.1 10.2l3.3 1.6-14.2 12.2h-2.5v.1z"/><path class="st8" d="M76.6 110.3l-.1-2.8L60 83.4s-5.3 1.2-7 1.6c-1.8.5-3.1 1.2-3.1 1.2s.5 4.4 13.3 10l-3.3 1.6L74 110.3h2.6z"/><path class="st0" d="M79.5 87.6h-7.7c-3 0-5.5-2.5-5.5-5.5V65.8c0-5.1 4.2-9.3 9.3-9.3 5.1 0 9.3 4.2 9.3 9.3v16.3c.1 3-2.4 5.5-5.4 5.5z"/><path class="st9 st10" d="M93.6 47.1c0 15.1-2.5 30.5-17.4 30.5-13.8 0-18.5-15.4-18.5-30.5s.7-30.8 18-30.6c18.1.2 17.9 15.5 17.9 30.6z"/><path class="st11" d="M56.9 58.1s-4.4.2-6.3-6.6c-1.9-6.8 1.9-6.7 4-4.8l2.3 11.4zm38 0s4.4.2 6.3-6.6-1.9-6.7-4-4.8l-2.3 11.4z"/><path class="st0" d="M97.5 45.5C97.5 60.6 95 76 76.8 76c-18 0-22.1-15.4-22.1-30.5s.8-30.8 21.4-30.6c21.7.3 21.4 15.6 21.4 30.6z"/><path class="st12" d="M97 53.4c.6-2.2 2-7.5 2.8-14.1C99.5 23.8 93.6 9.9 76 9.9 57.8 9.9 52.2 24.2 52.2 40c0 .7 0 1.4.1 2.1.7 4.6 1.9 9 3.3 12.4 0 0-.5-5-.5-16.6 0-13 11.9-14.7 20.8-14.6 8.6.1 21.1 1.8 21.1 14.8 0 8.2.1 13.9-.2 15.7 0-.1.1-.3.2-.4z"/><path class="st12" d="M62.3 23.8s16.5 13.6 32.4 1c0 0-4.3 2.3-16.9-8.3-4.9-4-17.8-4.4-15.5 7.3z"/><path class="st1" d="M67.8 93.4s3.2-3.8 5.8-1.8c.6.4 1.5 2.3 1.5 2.3s.2-2.4-1.7-4l-11.1-7.1s-1.2-.8-3.5 1"/><path class="st2" d="M71.8 90.5c-2 .2-3.3 1.6-4 2.9L58 83.8c4.2-3.7 8.5-2 8.5-2l6.9 8.2c1 .8 1.9 2.4 1.9 4 0 0-.2.4-.4-.4-.2-1.1-1-3.4-3.1-3.1z"/><path class="st1" d="M76.3 93.9s0-2.4 1.9-4l11.1-7.1s-.7.2 1.6 2l-7 8.7s-2.9-4-5.6-2c-.3.2-.8.6-1.5 2.2-.3.4-.5.2-.5.2z"/><path class="st2" d="M79.8 90.5c2 .2 3.3 1.6 4 2.9l9.9-9.7c-2.9-3.4-8.4-2.2-8.4-2.2l-7.1 8.3c-1 .8-1.9 2.4-1.9 4l.2.1c0-.9 1.1-3.7 3.3-3.4z"/><path class="st12" d="M72.1 41c-.1 0-.2 0-.3-.1-4.4-2.5-9.1 0-9.2 0-.3.1-.6 0-.7-.2-.1-.3 0-.6.2-.7.2-.1 5.2-2.8 10.2 0 .3.1.3.5.2.7 0 .2-.2.3-.4.3zm18.1 0c-.1 0-.2 0-.3-.1-4.4-2.5-9.1 0-9.2 0-.3.1-.6 0-.7-.2-.1-.3 0-.6.2-.7.2-.1 5.2-2.8 10.2 0 .3.1.3.5.2.7-.1.2-.2.3-.4.3z"/><path class="st11" d="M75.8 58c-1.8 0-4.3-1.9-4.6-2.2-.2-.2-.3-.6-.1-.8.2-.2.6-.3.8-.1.7.5 2.7 1.9 3.9 1.9 1.2 0 3.2-1.4 3.9-1.9.2-.2.6-.2.8.1.2.2.2.6-.1.8-.3.2-2.8 2.2-4.6 2.2z"/><path class="st13" d="M83.3 63H68.7c2 2 4.6 2.4 7.3 2.4s5.3-.4 7.3-2.4z"/><circle class="st14" cx="66.6" cy="45.1" r="1.5"/><circle class="st14" cx="85.1" cy="45.1" r="1.5"/><path class="st15" d="M65.7 39.4c.6 0 4.4.1 6.3 1.2.2.1.7.1 1 .1h5.3c.4 0 .8 0 1.1-.1 3.1-1.4 6.4-1 9.7-.7 2.1.2 4.3.6 6.4.9 1 .1 1.7.4 1.8 1.2.1.7-.4 1.2-1.3 1.5-1.1.3-1.5.9-1.5 1.8-.1.8-.1 1.7-.2 2.5-.4 2.2-1.8 3.7-4.6 4.2-1.6.3-3.3.4-4.9.3-3.9-.3-5.8-2.1-6.6-5.5-.1-.6-.2-1.2-.4-1.9-.3-1-1-1.7-2.3-1.5-2.8.3-2.1.5-2.4 1.5-.2.7-.3 1.5-.5 2.3-1.2 4.4-4.3 5.5-9.5 5.1-4.7-.4-6.6-2.3-6.6-6 0-1.3-.2-2.4-2.1-2.9-.4-.1-.9-.9-.8-1.3.1-.4.7-1 1.3-1.1 1.7-.3 3.4-.7 5.2-.9 2.1-.5 5-.7 5.6-.7zm-.2 1.5c-1.1 0-2.2.1-3.3.2-2.9.4-4.2 1.7-4.3 4 0 .4.1.9.1 1.3 0 3.7 5.5 5.7 9.5 4 2.9-1.2 4.9-4.7 4.1-7.2-.4-1.1-1.3-1.8-2.7-2-1-.2-2.2-.3-3.4-.3zm20.2 0h-2.1c-2.5.1-4 1.1-4.2 2.8-.2 2.3.5 4.3 2.6 5.9 1.5 1.1 3.4 1.5 5.4 1.3 4.6-.5 6.5-2.9 5.5-7.2-.3-1.2-1.3-2-2.8-2.3-1.4-.3-2.9-.4-4.4-.5z"/></svg>